<svg xmlns="http://www.w3.org/2000/svg" viewBox="0 0 485 485">
  <g transform="translate(0, 300) scale(0.05, -0.05)">
    <path d="M2152 5549c-158 -39 -233 -87 -422 -269 -88 -84 -221 -196 -295 -248 -74 -52 -135 -103 -135 -114 0 -11 -8 -15 -18 -9 -48 29 -609 -581 -609 -662 0 -14 -6 -21 -13 -17 -25 15 -214 -414 -260 -590 -43 -164 -44 -191 -31 -730l14 -560 -101 -97c-58 -56 -129 -152 -163 -223l-62 -124 7 -328 6 -328 73 -152c158 -333 443 -530 757 -525 186 3 800 24 880 30 28 2 110 -7 183 -20 165 -29 1140 -16 1223 16 83 31 190 25 314 -19 140 -49 269 -50 465 -2 139 35 165 36 260 10 307 -81 820 68 1028 300 105 116 275 454 365 727 182 543 -63 938 -569 921 -228 -7 -209 -45 -209 401 -1 910 -384 1661 -1090 2134 -107 71 -182 140 -227 206 -186 276 -388 339 -717 223 -147 -51 -182 -50 -288 8 -117 64 -223 76 -366 41zm307 -225c94 -70 122 -130 139 -298 18 -175 73 -286 142 -286 55 0 129 114 123 192 -2 35 4 99 13 142 10 42 12 95 4 116 -22 64 -63 -33 -80 -193 -10 -89 -29 -152 -57 -187l-41 -53 -14 56c-8 30 -4 104 8 164 26 125 20 143 -49 143 -76 0 -57 84 23 101 33 7 107 36 164 66 113 57 135 64 117 34 -7 -11 13 -6 43 10 163 85 373 -39 415 -244 10 -47 27 -67 67 -77 160 -39 579 -379 758 -613 326 -430 507 -1121 436 -1660 -26 -203 -32 -230 -74 -342l-21 -55 -437 4c-241 2 -438 6 -438 9 0 3 43 46 96 96 206 192 254 370 254 951 0 431 -34 643 -112 691 -9 6 -3 -23 14 -63 86 -207 112 -870 44 -1138 -11 -44 -20 -84 -20 -90 -1 -107 -261 -424 -376 -456 -84 -24 -22 -27 682 -31 474 -3 501 -8 529 -96 7 -22 33 -47 59 -57 34 -13 44 -29 36 -59 -13 -49 19 -54 63 -9 36 36 24 68 -24 68 -23 0 -10 24 45 80 98 101 77 104 -32 6 -80 -72 -138 -66 -138 16 0 62 380 100 481 48 225 -117 257 -327 110 -720 -163 -435 -299 -621 -494 -678 -59 -17 -169 -49 -245 -71 -167 -49 -323 -52 -432 -8 -88 35 -153 30 -340 -23 -135 -39 -340 -24 -436 32 -81 46 -152 48 -266 6 -68 -25 -163 -32 -418 -31 -181 0 -352 0 -380 -1 -338 -10 -580 17 -580 65 0 9 -38 0 -85 -22 -102 -46 -339 -52 -414 -11 -41 23 -61 23 -130 -2 -380 -136 -796 59 -902 424 -122 420 0 834 276 939 84 32 91 40 75 81 -79 207 -76 427 5 377 8 -5 15 2 16 17 0 14 32 -10 72 -54l71 -80 -13 80c-56 339 -71 450 -72 520l-1 80 -26 -74c-14 -40 -26 -133 -26 -205 -1 -145 -6 -156 -75 -166 -46 -6 -48 0 -61 163 -64 769 403 1579 1161 2012 60 35 109 70 109 79 0 29 161 199 230 241 155 96 333 114 429 44z"/>
    <path d="M2054 5188c-62 -63 11 -355 106 -422 30 -21 200 -283 200 -307 0 -5 -81 -10 -179 -12 -520 -9 -739 -335 -740 -1099 -2 -523 90 -770 352 -950 129 -89 145 -62 21 34 -122 94 -220 232 -268 377 -80 239 -39 1006 64 1224 17 35 30 69 30 77 0 156 360 315 696 307 117 -2 119 3 38 150 -39 71 -74 154 -77 185 -6 44 -21 59 -71 72 -87 23 -126 85 -127 205 -2 110 -22 181 -45 159z"/>
    <path d="M2235 5165c-68 -78 -59 -176 23 -239 81 -62 182 11 182 132 0 125 -129 193 -205 107z"/>
    <path d="M3031 5134c-65 -99 -48 -201 39 -243 108 -51 190 12 190 147 0 123 -166 193 -229 96z"/>
    <path d="M1774 4855c-267 -150 -287 -186 -178 -309l74 -83 190 120c216 136 206 119 140 243 -59 111 -75 113 -226 29zm160 -62c-9 -27 -94 -44 -94 -18 0 9 10 27 22 39 27 27 83 10 72 -21z"/>
    <path d="M3378 4824c-31 -45 -69 -76 -96 -78 -66 -5 -141 -60 -165 -122 -22 -54 -60 -143 -72 -167 -13 -25 71 -41 275 -51 233 -11 311 -36 470 -154l100 -74 -95 89c-154 145 -249 181 -500 190 -118 4 -215 10 -215 13 0 3 32 54 71 112 76 112 168 197 143 132 -10 -27 22 -50 152 -112 427 -205 901 -899 847 -1239 -8 -50 -6 -64 7 -43 12 20 15 -17 7 -105 -9 -91 -6 -135 9 -135 14 0 15 -20 3 -65 -11 -36 -19 -119 -19 -185 -1 -76 -15 -152 -40 -207 -47 -102 -48 -115 -15 -119 14 -1 73 -13 131 -26 125 -28 115 -36 154 113 201 755 -167 1720 -825 2165 -242 164 -258 167 -327 68z"/>
    <path d="M2435 4817c-92 -51 185 -457 311 -457 78 0 316 370 269 417 -48 48 -88 19 -183 -137 -116 -191 -87 -191 -209 -3 -122 188 -141 207 -188 180z"/>
    <path d="M1300 4435c-300 -378 -464 -918 -434 -1425 12 -200 49 -375 76 -359 10 6 18 2 18 -10 0 -11 17 -21 38 -21 20 0 48 -13 62 -30 30 -37 42 -37 88 -4 33 24 33 34 5 145 -122 485 -21 1023 272 1451 97 142 98 159 9 253 -74 78 -72 78 -134 0z"/>
    <path d="M2440 4261c-520 -13 -602 -48 -736 -315 -123 -243 -131 -955 -14 -1185 160 -316 188 -324 1077 -317 819 7 806 4 962 177 224 248 270 1112 75 1412 -166 256 -180 258 -1364 228zm628 -322c142 -125 160 -197 145 -600 -23 -641 -66 -667 -1057 -641 -90 2 -197 88 -262 210 -66 123 -67 740 -1 862 113 210 165 227 681 229l425 1 69 -61zm567 -110c96 -67 108 -296 20 -358 -70 -49 -165 -39 -213 21 -145 184 15 462 193 337zm5 -649c63 -63 60 -245 -6 -316 -105 -114 -290 13 -267 183 20 152 177 229 273 133zm-287 -472c51 -14 77 -86 36 -101 -15 -6 -42 4 -60 21 -18 18 -40 27 -51 21 -41 -26 -96 -26 -86 0 19 48 97 76 161 59z"/>
    <path d="M2450 3861c-432 -16 -471 -56 -471 -486 -1 -500 46 -542 589 -526 522 15 532 25 532 512 0 408 -67 527 -290 515 -33 -2 -195 -9 -360 -15zm-37 -264c267 -174 280 -184 436 -333 190 -182 194 -256 11 -229 -63 10 -67 8 -42 -22 33 -40 6 -42 -46 -3 -21 16 -47 23 -59 16 -11 -7 -4 -19 18 -27 25 -8 3 -14 -59 -16 -97 -2 -185 36 -157 67 8 9 -18 -8 -58 -38 -52 -38 -89 -51 -130 -45 -31 6 -64 10 -73 11 -9 1 -11 11 -4 22 7 11 -8 20 -32 20 -25 0 -39 5 -33 12 15 15 -30 67 -48 56 -7 -4 -18 6 -24 22 -7 17 -2 30 9 30 11 0 16 8 10 17 -22 36 -18 271 5 279 13 4 23 16 23 27 0 11 -9 14 -20 7 -11 -7 -20 -3 -20 9 0 11 8 21 19 21 26 0 36 61 19 124 -15 55 -1 71 65 74 19 1 104 -44 190 -101zm335 70c7 -17 25 -26 42 -20 35 14 107 -57 123 -122 6 -25 20 -45 32 -45 11 0 8 -15 -8 -34 -18 -23 -19 -29 -2 -19 14 9 25 6 25 -5 0 -35 -35 -42 -60 -12 -13 16 -33 24 -44 18 -10 -7 -33 7 -49 30 -16 24 -40 37 -51 29 -13 -8 -16 -4 -8 10 9 14 -11 45 -47 75 -33 28 -56 60 -50 70 6 10 -8 18 -31 18 -70 0 -27 33 47 36 46 2 73 -8 81 -29z"/>
    <path d="M4183 3098c-3 -199 -48 -476 -94 -586 -31 -76 -29 -107 8 -84 67 42 136 532 104 742 -14 92 -16 86 -18 -72z"/>
    <path d="M907 2508c-65 -99 55 -241 142 -169 48 40 40 153 -13 190 -62 43 -90 39 -129 -21z"/>
    <path d="M1171 2501c-40 -76 -13 -155 59 -173 108 -27 172 110 90 192 -57 57 -114 50 -149 -19z"/>
    <path d="M1510 2302c-255 -14 -252 -13 -330 -148 -67 -118 -71 -134 -32 -134 32 0 91 84 103 145 18 95 51 105 373 111l302 5 87 -93c92 -98 105 -101 59 -12 -68 132 -149 150 -562 126z"/>
    <path d="M2334 2300c-99 -30 -194 -158 -194 -263l0 -44 48 45c27 25 74 85 104 134 72 113 81 115 448 112 171 -1 369 5 440 14 96 12 8 17 -330 18 -253 0 -485 -7 -516 -16z"/>
    <path d="M740 2287c-16 -5 -46 -31 -66 -58l-36 -49 66 39c155 90 289 70 354 -53 22 -42 41 -64 41 -50 5 133 -182 222 -359 171z"/>
    <path d="M2433 2139c-51 -40 -253 -416 -253 -471 0 -70 -42 -12 -131 183 -143 313 -201 360 -307 254l-55 -55 -13 -438c-13 -459 -8 -501 72 -530 126 -47 174 50 175 354l2 234 38 -86c21 -47 37 -92 35 -100 -9 -31 48 -161 83 -193 62 -56 106 -22 222 168 123 203 147 208 108 21 -71 -332 6 -508 164 -373l55 47 8 462 9 461 -52 51c-62 63 -91 65 -160 11z"/>
    <path d="M2789 2131c-85 -85 -30 -231 86 -231 49 0 125 88 125 144 0 46 -86 136 -130 136 -17 0 -54 -22 -81 -49z"/>
    <path d="M3143 2157c-148 -55 -111 -257 47 -257 86 0 88 -2 71 -48 -41 -108 -35 -732 8 -764 139 -102 209 0 222 324 6 142 15 312 21 378l10 121 80 -8c135 -13 225 156 127 238 -32 27 -520 41 -586 16z"/>
    <path d="M3869 2131c-103 -103 -46 -241 93 -224 102 12 146 -39 92 -104 -75 -91 -34 -723 48 -723 11 0 6 20 -11 44 -50 72 -36 84 21 18 138 -165 186 11 188 693 0 104 1 105 61 105 132 0 194 124 102 207 -66 60 -530 48 -594 -16z"/>
    <path d="M4578 2138c-35 -35 -41 -58 -31 -129 8 -58 4 -89 -12 -94 -61 -20 242 -816 311 -815 17 1 18 5 2 15 -29 19 -88 135 -87 169 0 14 15 -1 32 -34 134 -255 212 -212 389 213 217 521 236 672 88 709 -44 11 -163 -46 -142 -67 6 -5 -3 -23 -18 -38 -27 -27 -107 -259 -138 -397 -10 -47 -8 -53 9 -30 18 24 20 20 12 -20 -6 -27 -17 -88 -25 -135 -16 -106 -39 -94 -58 30 -20 135 -146 566 -181 620 -37 57 -96 58 -151 3zm175 -812c-10 -10 -134 327 -132 360 1 13 33 -60 71 -164 38 -103 65 -191 61 -196z"/>
    <path d="M1377 2100l-60 -60 3 -295c5 -367 8 -336 -44 -384 -161 -151 -272 -1 -278 377 -7 377 -77 493 -207 339l-55 -65 8 -311c7 -292 11 -318 62 -416 174 -334 652 -298 752 56 48 172 22 734 -35 781 -63 50 -76 49 -146 -22z"/>
    <path d="M575 1989c-8 -9 -14 -93 -13 -187l3 -172 18 110c20 121 15 272 -8 249z"/>
    <path d="M478 1850c-4 -42 -1 -132 7 -198 13 -106 52 -47 41 62 -12 125 -42 209 -48 136z"/>
    <path d="M2795 1789l-55 -30 0 -307c0 -324 5 -343 105 -378 105 -38 145 61 152 376 8 367 -31 432 -202 339z"/>
    <path d="M3744 1756c-33 -33 10 -85 47 -56 19 17 24 1 20 -74 -17 -352 66 -642 201 -698 190 -80 332 -6 401 207 39 119 49 117 145 -32 64 -98 130 -152 163 -132 12 7 -6 42 -40 81 -33 38 -97 136 -142 218 -88 159 -119 173 -119 54 -1 -41 -20 -114 -44 -164 -23 -49 -41 -98 -38 -108 8 -35 -86 -112 -151 -124 -191 -36 -257 80 -290 515 -25 328 -62 404 -153 313z"/>
    <path d="M587 1492c35 -269 256 -550 455 -583 58 -9 55 -6 -25 25 -183 71 -314 239 -378 489 -43 169 -69 204 -52 69z"/>
    <path d="M3612 1220c-24 -103 -110 -253 -159 -276 -33 -16 -35 -22 -10 -23 71 -3 212 242 193 332 -6 25 -14 15 -24 -33z"/>
    <path d="M2023 1114c-23 -26 -43 -61 -43 -78 0 -42 -47 -78 -125 -97l-65 -15 64 -2c63 -2 206 108 206 159 0 36 57 19 95 -29 65 -83 166 -132 265 -129 50 1 68 6 40 10 -183 28 -178 26 -219 116 -56 122 -140 148 -218 65z"/>
    <path d="M2760 940l-250 -12 193 -4c107 -2 206 -9 221 -14 15 -6 45 3 67 19 21 16 35 28 29 26 -5 -2 -122 -8 -260 -15z"/>
  </g>
</svg>
